<svg xmlns="http://www.w3.org/2000/svg" viewBox="0 0 269.76 154.12"><g id="Layer_2" data-name="Layer 2"><g id="Layer_1-2" data-name="Layer 1"><path d="M120.91,63.91a21.13,21.13,0,0,0,11.35,3.66c4.49,0,7.57-2.36,7.57-5.79,0-8.34-19.75-4.26-19.75-18.33,0-7,6-11.76,14.54-11.76a28.94,28.94,0,0,1,10.94,2.25v7a20.24,20.24,0,0,0-10.4-3.07c-4.32,0-7.33,2.18-7.33,5.43,0,8.1,19.74,4,19.74,18.33,0,7.15-6.15,12.12-14.78,12.12a28.07,28.07,0,0,1-11.88-2.72Z"/><path d="M161.88,43.51h8.51V49.6h-8.51V63.26a4.06,4.06,0,0,0,4.31,4.19,9.67,9.67,0,0,0,4.2-1.18v6.27a17.25,17.25,0,0,1-6.21,1.24c-5.79,0-9.87-4-9.87-9.52V49.6h-5.08V43.51h5.08V35.18h7.57Z"/><path d="M175.24,43.51h7.56v3a10,10,0,0,1,7.27-3.67,8.84,8.84,0,0,1,2.49.3v6.74a9.87,9.87,0,0,0-2.66-.36,9.33,9.33,0,0,0-7.1,3.84V73.07h-7.56Z"/><path d="M200.71,31a4.29,4.29,0,1,1,0,8.57,4.29,4.29,0,1,1,0-8.57Zm-3.78,12.47h7.57V73.07h-7.57Z"/><path d="M210.65,43.51h7.56v2a12.65,12.65,0,0,1,7.51-2.72c7.92,0,13.36,6.39,13.36,15.49s-5.44,15.49-13.36,15.49A12.35,12.35,0,0,1,218.21,71V86h-7.56Zm13.47,5.8A8.34,8.34,0,0,0,218.21,52V64.62a8.38,8.38,0,0,0,5.91,2.66c4.26,0,7.21-3.67,7.21-9S228.38,49.31,224.12,49.31Z"/><path d="M256.75,42.8c7.75,0,13,6.09,13,14.78a23,23,0,0,1-.12,2.78h-20c.48,4.49,4,7.57,9,7.57a18.22,18.22,0,0,0,8.81-2.78v6.32a24.09,24.09,0,0,1-10,2.31c-8.93,0-15.2-6.5-15.2-15.73C242.15,49.13,248.3,42.8,256.75,42.8Zm5.74,12.65c-.24-4-2.66-6.8-6-6.8-3.67,0-6.5,2.72-6.86,6.8Z"/><path d="M120.84,81.93h14.37c8.27,0,14.19,5.38,14.19,13.06s-5.92,13-14.19,13h-6.8V122.6h-7.57Zm7.57,19.92h5.73c4.38,0,7.45-2.78,7.45-6.86s-3.07-6.92-7.45-6.92h-5.73Z"/><path d="M153.3,93h7.56V96a10,10,0,0,1,7.28-3.66,9.19,9.19,0,0,1,2.48.29v6.74A10.22,10.22,0,0,0,168,99a9.33,9.33,0,0,0-7.1,3.84V122.6H153.3Z"/><path d="M186.17,92.33c7.74,0,13,6.09,13,14.78a23,23,0,0,1-.12,2.78H179c.48,4.49,4,7.56,9,7.56a18.11,18.11,0,0,0,8.81-2.78V121a24.07,24.07,0,0,1-10.05,2.3c-8.93,0-15.2-6.5-15.2-15.72C171.56,98.65,177.71,92.33,186.17,92.33ZM191.9,105c-.24-4-2.66-6.8-6-6.8-3.66,0-6.5,2.72-6.86,6.8Z"/><path d="M203.37,114.61a16.17,16.17,0,0,0,8.57,2.72c2.66,0,4.49-1.36,4.49-3.25,0-5-13.71-2.3-13.71-12.65,0-5.38,4.67-9.1,11.29-9.1A22.23,22.23,0,0,1,222.4,94v6.56a15.31,15.31,0,0,0-7.86-2.3c-2.48,0-4.26,1.24-4.26,3C210.28,106,224,103.38,224,114c0,5.5-4.73,9.34-11.59,9.34a22.58,22.58,0,0,1-9-2Z"/><path d="M228,114.61a16.17,16.17,0,0,0,8.57,2.72c2.66,0,4.49-1.36,4.49-3.25,0-5-13.71-2.3-13.71-12.65,0-5.38,4.67-9.1,11.29-9.1A22.23,22.23,0,0,1,247.05,94v6.56a15.31,15.31,0,0,0-7.86-2.3c-2.48,0-4.26,1.24-4.26,3,0,4.73,13.72,2.07,13.72,12.65,0,5.5-4.73,9.34-11.59,9.34a22.58,22.58,0,0,1-9-2Z"/><path d="M43.18,128.39c11.28,0,20.17-5.88,22.65-15a18.27,18.27,0,0,0-.41-10.78c-2.35-6.63-8-11-16.67-13l-.35-.08c-1.53-.35-3.12-.71-4.64-1.11-6.27-1.64-11.88-3.22-16.87-5.88A41.13,41.13,0,0,1,5,46.2a40.35,40.35,0,0,1,12-29C25.13,9.14,36.55,4.82,49.2,5h6.63a2.5,2.5,0,0,0,0-5h-6.6C35.29-.22,22.58,4.63,13.46,13.62A45.31,45.31,0,0,0,0,46.2v79.69a2.5,2.5,0,0,0,2.5,2.5Zm4.11-33.94.35.08c7,1.6,11.31,4.79,13.07,9.76a13.22,13.22,0,0,1,.29,7.8c-1.86,6.86-8.86,11.3-17.82,11.3H30.73V89.76c3.69,1.38,7.59,2.45,11.76,3.55C44.1,93.73,45.72,94.1,47.29,94.45ZM25.73,87.6v35.79H17.8V82.61A47.33,47.33,0,0,0,24.54,87C24.93,87.22,25.33,87.41,25.73,87.6ZM12.8,78.1v45.29H5V67.12A46.36,46.36,0,0,0,12.8,78.1Z"/><path d="M79.55,78.12A46.2,46.2,0,0,0,89,28.92a5.06,5.06,0,0,0-4.71-3.18H46.19A20.49,20.49,0,0,0,25.73,46.2c0,10.68,8,19.49,20,21.93,26.45,4.57,41.62,19.07,41.62,39.8,0,23.48-19,41.19-44.2,41.19H33a2.5,2.5,0,0,0,0,5H43.18c28.05,0,49.2-19.86,49.2-46.19A39.76,39.76,0,0,0,79.55,78.12ZM84.4,30.79A41.21,41.21,0,0,1,75.72,74.9a51.91,51.91,0,0,0-6.62-4.23A34.29,34.29,0,0,0,79.58,46.2,33.08,33.08,0,0,0,75.8,30.78ZM70,30.77A28.24,28.24,0,0,1,74.58,46.2,29.21,29.21,0,0,1,64.26,68.31h0a70.42,70.42,0,0,0-8.48-3A22.58,22.58,0,0,0,66.65,46.2,20.43,20.43,0,0,0,59.6,30.76ZM30.73,46.2A15.48,15.48,0,0,1,46.19,30.74h0A15.48,15.48,0,0,1,61.65,46.2c0,9-7.23,16.81-15.46,16.81L46,63C36.68,60.89,30.73,54.35,30.73,46.2Z"/><path d="M79.58,107.93c0-16.47-11.44-27.5-33.11-31.91C28.52,72.59,17.8,61.44,17.8,46.2A27.23,27.23,0,0,1,26,26.71,31.88,31.88,0,0,1,49.2,17.8H73.87a2.5,2.5,0,0,0,0-5H49.23a37,37,0,0,0-26.7,10.35A32.19,32.19,0,0,0,12.8,46.2C12.8,64,25,77,45.5,80.93c19.3,3.92,29.08,13,29.08,27,0,16.18-13.5,28.39-31.4,28.39H15.28a2.5,2.5,0,0,0,0,5h27.9C63.94,141.32,79.58,127,79.58,107.93Z"/></g></g></svg>